G04 ================== begin FILE IDENTIFICATION RECORD ==================*
G04 Layout Name:  led_youtube.brd*
G04 Film Name:    BOTL*
G04 File Format:  Gerber RS274X*
G04 File Origin:  Cadence Allegro 17.4-S024*
G04 Origin Date:  Tue Mar 15 10:55:34 2022*
G04 *
G04 Layer:  VIA CLASS/BOTTOM*
G04 Layer:  PIN/BOTTOM*
G04 Layer:  ETCH/BOTTOM*
G04 *
G04 Offset:    (0.0000 0.0000)*
G04 Mirror:    No*
G04 Mode:      Positive*
G04 Rotation:  0*
G04 FullContactRelief:  No*
G04 UndefLineWidth:     0.1000*
G04 ================== end FILE IDENTIFICATION RECORD ====================*
%FSLAX35Y35*MOMM*%
%IR0*IPPOS*OFA0.00000B0.00000*MIA0B0*SFA1.00000B1.00000*%
%ADD10C,.6*%
%ADD13R,1.1999X.8999*%
%ADD12R,.7X.7*%
%ADD11O,2.X1.5999*%
%ADD14C,.3*%
%ADD15C,.5*%
G75*
%LPD*%
G75*
G36*
G01X50000Y1950000D02*
X1300000D01*
Y1247800D01*
G02X1283940Y1239530I-10160J1D01*
G03X1220000Y1260020I-63942J-89527D01*
G01X1180000D01*
G03Y1039980I-5J-110020D01*
G01X1220000D01*
G03X1283940Y1060470I-2J110017D01*
G02X1300000Y1052200I5900J-8271D01*
G01Y993800D01*
G02X1283940Y985530I-10160J1D01*
G03X1220000Y1006020I-63942J-89527D01*
G01X1180000D01*
G03Y785980I-5J-110020D01*
G01X1220000D01*
G03X1283940Y806470I-2J110017D01*
G02X1300000Y798200I5900J-8271D01*
G01Y50000D01*
X50000D01*
Y1950000D01*
G37*
G54D10*
X790000Y580000D03*
G54D11*
X1200000Y896000D03*
Y1150000D03*
G54D12*
X1650000Y680000D03*
Y820000D03*
G54D13*
Y1195000D03*
Y1405000D03*
G54D14*
G01X1200000Y780900D02*
Y896000D01*
G01D02*
Y1011100D01*
G01X1064900Y896000D02*
X1200000D01*
G54D15*
G01X1650000Y680000D02*
X1450000D01*
X1400000Y730000D01*
Y851000D01*
X1355000Y896000D01*
X1200000D01*
G01Y1150000D02*
X1355000D01*
X1400000Y1195000D01*
Y1350000D01*
X1455000Y1405000D01*
X1650000D01*
G01Y1195000D02*
Y820000D01*
M02*
