G04 ================== begin FILE IDENTIFICATION RECORD ==================*
G04 Layout Name:  led_youtube.brd*
G04 Film Name:    SILKB*
G04 File Format:  Gerber RS274X*
G04 File Origin:  Cadence Allegro 17.4-S024*
G04 Origin Date:  Tue Mar 15 10:55:34 2022*
G04 *
G04 Layer:  REF DES/SILKSCREEN_BOTTOM*
G04 Layer:  PACKAGE GEOMETRY/SILKSCREEN_BOTTOM*
G04 Layer:  BOARD GEOMETRY/SILKSCREEN_BOTTOM*
G04 *
G04 Offset:    (0.0000 0.0000)*
G04 Mirror:    No*
G04 Mode:      Positive*
G04 Rotation:  0*
G04 FullContactRelief:  No*
G04 UndefLineWidth:     0.1000*
G04 ================== end FILE IDENTIFICATION RECORD ====================*
%FSLAX35Y35*MOMM*%
%IR0*IPPOS*OFA0.00000B0.00000*MIA0B0*SFA1.00000B1.00000*%
%ADD10C,.1*%
G75*
%LPD*%
G75*
G36*
G01X1720000Y570000D02*
X1580000D01*
Y610000D01*
X1720000D01*
Y570000D01*
G37*
G54D10*
G01X1737130Y400000D02*
Y527000D01*
X1704970D01*
X1692100Y520650D01*
X1682450Y512180D01*
X1674410Y499490D01*
X1667970Y484660D01*
X1666370Y463500D01*
X1667970Y442330D01*
X1674410Y427510D01*
X1682450Y414810D01*
X1692100Y406350D01*
X1704970Y400000D01*
X1737130D01*
G01X1602810Y505830D02*
X1593160Y518530D01*
X1581900Y524880D01*
X1569030Y527000D01*
X1552950Y522770D01*
X1541690Y512180D01*
X1538470Y499490D01*
X1540080Y486780D01*
X1546520Y476200D01*
X1578680Y455030D01*
X1593160Y440220D01*
X1602810Y419050D01*
X1606030Y400000D01*
X1538470D01*
G01X1720000Y890000D02*
X1580000D01*
Y570000D01*
X1720000D01*
Y890000D01*
G01X1750000Y1490000D02*
Y1110000D01*
X1550000D01*
Y1490000D01*
X1750000D01*
G01X1733920Y1550000D02*
Y1677000D01*
X1693710D01*
X1680840Y1670650D01*
X1672800Y1662180D01*
X1669580Y1645250D01*
X1672800Y1628320D01*
X1682450Y1617730D01*
X1693710Y1611380D01*
X1733920D01*
G01X1693710D02*
X1669580Y1550000D01*
G01X1602810Y1655830D02*
X1593160Y1668530D01*
X1581900Y1674880D01*
X1569030Y1677000D01*
X1552950Y1672770D01*
X1541690Y1662180D01*
X1538470Y1649490D01*
X1540080Y1636780D01*
X1546520Y1626200D01*
X1578680Y1605030D01*
X1593160Y1590220D01*
X1602810Y1569050D01*
X1606030Y1550000D01*
X1538470D01*
M02*
